REM DIRINDEX 1\2,1\3,1\4,1\5
REM DIRNAME folder01,folder02,folder03,folder04,folder05
TITLE ""
FILE "175.mp3" MP3
  TRACK 01 AUDIO
    TITLE "0:"
    INDEX 01 00:00:00
  TRACK 02 AUDIO
    TITLE "2:cjc046_5365"
    INDEX 01 00:00:05
  TRACK 03 AUDIO
    TITLE "0:"
    INDEX 01 00:01:03
  TRACK 04 AUDIO
    TITLE "3:cjc046_5366"
    INDEX 01 00:01:21
  TRACK 05 AUDIO
    TITLE "0:"
    INDEX 01 00:02:24
  TRACK 06 AUDIO
    TITLE "4:cjc046_5367"
    INDEX 01 00:02:40
  TRACK 07 AUDIO
    TITLE "0:"
    INDEX 01 00:03:37
  TRACK 08 AUDIO
    TITLE "2:cjc046_5368"
    INDEX 01 00:04:36
  TRACK 09 AUDIO
    TITLE "0:"
    INDEX 01 00:05:42
  TRACK 10 AUDIO
    TITLE "3:cjc046_5369"
    INDEX 01 00:05:56
  TRACK 11 AUDIO
    TITLE "0:"
    INDEX 01 00:07:00
  TRACK 12 AUDIO
    TITLE "4:cjc046_5370"
    INDEX 01 00:07:11
  TRACK 13 AUDIO
    TITLE "0:"
    INDEX 01 00:08:15
  TRACK 14 AUDIO
    TITLE "2:cjc046_5371"
    INDEX 01 00:09:24
  TRACK 15 AUDIO
    TITLE "0:"
    INDEX 01 00:10:27
  TRACK 16 AUDIO
    TITLE "3:cjc046_5372"
    INDEX 01 00:10:41
  TRACK 17 AUDIO
    TITLE "0:"
    INDEX 01 00:11:72
  TRACK 18 AUDIO
    TITLE "4:cjc046_5373"
    INDEX 01 00:12:18
  TRACK 19 AUDIO
    TITLE "0:"
    INDEX 01 00:13:24
  TRACK 20 AUDIO
    TITLE "2:cjc046_5374"
    INDEX 01 00:14:29
  TRACK 21 AUDIO
    TITLE "0:"
    INDEX 01 00:15:58
  TRACK 22 AUDIO
    TITLE "3:cjc046_5375"
    INDEX 01 00:16:02
  TRACK 23 AUDIO
    TITLE "0:"
    INDEX 01 00:17:33
  TRACK 24 AUDIO
    TITLE "4:cjc046_5376"
    INDEX 01 00:17:45
  TRACK 25 AUDIO
    TITLE "0:"
    INDEX 01 00:18:72
  TRACK 26 AUDIO
    TITLE "2:cjc046_5377"
    INDEX 01 00:20:04
  TRACK 27 AUDIO
    TITLE "0:"
    INDEX 01 00:21:09
  TRACK 28 AUDIO
    TITLE "3:cjc046_5378"
    INDEX 01 00:21:29
  TRACK 29 AUDIO
    TITLE "0:"
    INDEX 01 00:22:40
  TRACK 30 AUDIO
    TITLE "4:cjc046_5379"
    INDEX 01 00:22:56
  TRACK 31 AUDIO
    TITLE "0:"
    INDEX 01 00:23:63
  TRACK 32 AUDIO
    TITLE "2:cjc046_5380"
    INDEX 01 00:24:71
  TRACK 33 AUDIO
    TITLE "0:"
    INDEX 01 00:25:64
  TRACK 34 AUDIO
    TITLE "3:cjc046_5381"
    INDEX 01 00:26:15
  TRACK 35 AUDIO
    TITLE "0:"
    INDEX 01 00:27:22
  TRACK 36 AUDIO
    TITLE "4:cjc046_5382"
    INDEX 01 00:27:43
  TRACK 37 AUDIO
    TITLE "0:"
    INDEX 01 00:28:37
  TRACK 38 AUDIO
    TITLE "2:cjc046_5383"
    INDEX 01 00:29:56
  TRACK 39 AUDIO
    TITLE "0:"
    INDEX 01 00:30:73
  TRACK 40 AUDIO
    TITLE "3:cjc046_5384"
    INDEX 01 00:31:18
  TRACK 41 AUDIO
    TITLE "0:"
    INDEX 01 00:33:28
  TRACK 42 AUDIO
    TITLE "4:cjc046_5385"
    INDEX 01 00:33:46
  TRACK 43 AUDIO
    TITLE "0:"
    INDEX 01 00:34:63
  TRACK 44 AUDIO
    TITLE "2:cjc046_5386"
    INDEX 01 00:35:72
  TRACK 45 AUDIO
    TITLE "0:"
    INDEX 01 00:37:18
  TRACK 46 AUDIO
    TITLE "3:cjc046_5387"
    INDEX 01 00:37:42
  TRACK 47 AUDIO
    TITLE "0:"
    INDEX 01 00:39:09
  TRACK 48 AUDIO
    TITLE "4:cjc046_5388"
    INDEX 01 00:39:29
  TRACK 49 AUDIO
    TITLE "0:"
    INDEX 01 00:40:52
  TRACK 50 AUDIO
    TITLE "2:cjc046_5389"
    INDEX 01 00:41:65
  TRACK 51 AUDIO
    TITLE "0:"
    INDEX 01 00:42:65
  TRACK 52 AUDIO
    TITLE "3:cjc046_5390"
    INDEX 01 00:43:09
  TRACK 53 AUDIO
    TITLE "0:"
    INDEX 01 00:44:28
  TRACK 54 AUDIO
    TITLE "4:cjc046_5391"
    INDEX 01 00:44:46
  TRACK 55 AUDIO
    TITLE "0:"
    INDEX 01 00:45:45
  TRACK 56 AUDIO
    TITLE "2:cjc046_5392"
    INDEX 01 00:46:54
  TRACK 57 AUDIO
    TITLE "0:"
    INDEX 01 00:47:74
  TRACK 58 AUDIO
    TITLE "3:cjc046_5393"
    INDEX 01 00:48:20
  TRACK 59 AUDIO
    TITLE "0:"
    INDEX 01 00:49:39
  TRACK 60 AUDIO
    TITLE "4:cjc046_5394"
    INDEX 01 00:49:59
  TRACK 61 AUDIO
    TITLE "0:"
    INDEX 01 00:51:03
  TRACK 62 AUDIO
    TITLE "2:cjc046_5395"
    INDEX 01 00:52:12
  TRACK 63 AUDIO
    TITLE "0:"
    INDEX 01 00:53:09
  TRACK 64 AUDIO
    TITLE "3:cjc046_5396"
    INDEX 01 00:53:29
  TRACK 65 AUDIO
    TITLE "0:"
    INDEX 01 00:54:54
  TRACK 66 AUDIO
    TITLE "4:cjc046_5397"
    INDEX 01 00:54:72
  TRACK 67 AUDIO
    TITLE "0:"
    INDEX 01 00:55:69
  TRACK 68 AUDIO
    TITLE "2:cjc046_5398"
    INDEX 01 00:57:05
  TRACK 69 AUDIO
    TITLE "0:"
    INDEX 01 00:58:13
  TRACK 70 AUDIO
    TITLE "3:cjc046_5399"
    INDEX 01 00:58:30
  TRACK 71 AUDIO
    TITLE "0:"
    INDEX 01 00:59:39
  TRACK 72 AUDIO
    TITLE "4:cjc046_5400"
    INDEX 01 00:59:61
  TRACK 73 AUDIO
    TITLE "0:"
    INDEX 01 01:00:70
  TRACK 74 AUDIO
    TITLE "2:cjc046_5401"
    INDEX 01 01:02:03
  TRACK 75 AUDIO
    TITLE "0:"
    INDEX 01 01:03:04
  TRACK 76 AUDIO
    TITLE "3:cjc046_5402"
    INDEX 01 01:03:20
  TRACK 77 AUDIO
    TITLE "0:"
    INDEX 01 01:05:21
  TRACK 78 AUDIO
    TITLE "4:cjc046_5403"
    INDEX 01 01:05:36
  TRACK 79 AUDIO
    TITLE "0:"
    INDEX 01 01:06:36
  TRACK 80 AUDIO
    TITLE "2:cjc046_5404"
    INDEX 01 01:07:45
  TRACK 81 AUDIO
    TITLE "0:"
    INDEX 01 01:08:48
  TRACK 82 AUDIO
    TITLE "3:cjc046_5405"
    INDEX 01 01:08:70
  TRACK 83 AUDIO
    TITLE "0:"
    INDEX 01 01:10:00
  TRACK 84 AUDIO
    TITLE "4:cjc046_5406"
    INDEX 01 01:10:12
  TRACK 85 AUDIO
    TITLE "0:"
    INDEX 01 01:11:15
  TRACK 86 AUDIO
    TITLE "2:cjc046_5407"
    INDEX 01 01:12:26
  TRACK 87 AUDIO
    TITLE "0:"
    INDEX 01 01:13:42
  TRACK 88 AUDIO
    TITLE "3:cjc046_5408"
    INDEX 01 01:13:57
  TRACK 89 AUDIO
    TITLE "0:"
    INDEX 01 01:14:63
  TRACK 90 AUDIO
    TITLE "4:cjc046_5409"
    INDEX 01 01:15:01
  TRACK 91 AUDIO
    TITLE "0:"
    INDEX 01 01:16:16
  TRACK 92 AUDIO
    TITLE "2:cjc046_5410"
    INDEX 01 01:17:28
  TRACK 93 AUDIO
    TITLE "0:"
    INDEX 01 01:18:33
  TRACK 94 AUDIO
    TITLE "3:cjc046_5411"
    INDEX 01 01:18:49
  TRACK 95 AUDIO
    TITLE "0:"
    INDEX 01 01:19:66
  TRACK 96 AUDIO
    TITLE "4:cjc046_5412"
    INDEX 01 01:20:10
  TRACK 97 AUDIO
    TITLE "0:"
    INDEX 01 01:21:18
